<svg xmlns="http://www.w3.org/2000/svg" width="32" height="32" viewBox="0 0 32 32">
  <g id="Group_1495" data-name="Group 1495" transform="translate(-1135 -272)">
    <g id="Group_1494" data-name="Group 1494" transform="translate(-168.768 156)">
      <g id="Rectangle_530" data-name="Rectangle 530" transform="translate(1303.768 116)" fill="#fff" stroke="#dcc9d6" stroke-width="1">
        <rect width="32" height="32" rx="16" stroke="none"/>
        <rect x="0.5" y="0.5" width="31" height="31" rx="15.5" fill="none"/>
      </g>
    </g>
    <g id="wrong" transform="translate(1142 277)">
      <g id="Group_1490" data-name="Group 1490">
        <g id="Group_1489" data-name="Group 1489">
          <ellipse id="Ellipse_364" data-name="Ellipse 364" cx="1" cy="0.5" rx="1" ry="0.5" transform="translate(9 13)" fill="#dcc9d6"/>
          <path id="Path_350" data-name="Path 350" d="M11.015,18.437H3.125a1.564,1.564,0,0,1-1.562-1.562V10.469A1.564,1.564,0,0,1,3.125,8.906h11.25a1.564,1.564,0,0,1,1.562,1.562v1.719a.781.781,0,0,0,1.562,0V10.469a3.129,3.129,0,0,0-3.125-3.125h-.939V4.588A4.644,4.644,0,0,0,8.748,0,4.644,4.644,0,0,0,4.061,4.588V7.344H3.125A3.129,3.129,0,0,0,0,10.469v6.406A3.129,3.129,0,0,0,3.125,20h7.891a.781.781,0,0,0,0-1.562ZM5.623,4.588A3.08,3.08,0,0,1,8.748,1.562a3.08,3.08,0,0,1,3.125,3.026V7.344H5.623V4.588Z" fill="#dcc9d6"/>
          <circle id="Ellipse_365" data-name="Ellipse 365" cx="0.5" cy="0.5" r="0.5" transform="translate(7 13)" fill="#dcc9d6"/>
          <circle id="Ellipse_366" data-name="Ellipse 366" cx="0.5" cy="0.5" r="0.5" transform="translate(4 13)" fill="#dcc9d6"/>
          <g id="Group_1493" data-name="Group 1493" transform="translate(-2230.937 -9483.891)">
            <path id="Path_359" data-name="Path 359" d="M313.581,472h0a3.075,3.075,0,1,0,3.077,3.075A3.075,3.075,0,0,0,313.58,472Z" transform="translate(1933.111 9025.812)" fill="#dcc9d6"/>
          </g>
        </g>
      </g>
    </g>
  </g>
</svg>
