<svg xmlns="http://www.w3.org/2000/svg" width="32" height="32" viewBox="0 0 32 32">
  <g id="Group_1494" data-name="Group 1494" transform="translate(-1135 -272)">
    <g id="Group_1494-2" data-name="Group 1494" transform="translate(-168.768 156)">
      <g id="Rectangle_530" data-name="Rectangle 530" transform="translate(1303.768 116)" fill="#fff" stroke="#6bb3d2" stroke-width="1">
        <rect width="32" height="32" rx="16" stroke="none"/>
        <rect x="0.5" y="0.5" width="31" height="31" rx="15.5" fill="none"/>
      </g>
    </g>
    <g id="password_3_" data-name="password (3)" transform="translate(1142.001 276.999)">
      <g id="Group_1488" data-name="Group 1488" transform="translate(0 0.001)">
        <g id="Group_1487" data-name="Group 1487" transform="translate(0 0)">
          <circle id="Ellipse_360" data-name="Ellipse 360" cx="0.5" cy="0.5" r="0.5" transform="translate(12.999 13)" fill="#6bb3d2"/>
          <path id="Path_348" data-name="Path 348" d="M9.3,18.439H3.125a1.564,1.564,0,0,1-1.563-1.563V10.47A1.564,1.564,0,0,1,3.125,8.907h11.25a1.564,1.564,0,0,1,1.563,1.563v1.563a.781.781,0,0,0,1.563,0V10.47a3.129,3.129,0,0,0-3.125-3.125h-.939V4.59A4.644,4.644,0,0,0,8.749,0,4.644,4.644,0,0,0,4.061,4.59V7.345H3.125A3.129,3.129,0,0,0,0,10.47v6.406A3.129,3.129,0,0,0,3.125,20H9.3a.781.781,0,1,0,0-1.563ZM5.624,4.59A3.08,3.08,0,0,1,8.749,1.564,3.08,3.08,0,0,1,11.874,4.59V7.345H5.624V4.59Z" transform="translate(0 -0.001)" fill="#6bb3d2"/>
          <path id="Path_349" data-name="Path 349" d="M272.439,322.145a.781.781,0,0,0-1.09.18L267.5,327.7a.446.446,0,0,1-.642.033l-2.489-2.429a.781.781,0,0,0-1.091,1.118l2.493,2.433.007.007a2.014,2.014,0,0,0,1.386.554q.066,0,.133,0a2.014,2.014,0,0,0,1.432-.746l.026-.035,3.866-5.4A.781.781,0,0,0,272.439,322.145Z" transform="translate(-252.765 -309.421)" fill="#6bb3d2"/>
          <ellipse id="Ellipse_361" data-name="Ellipse 361" cx="1" cy="0.5" rx="1" ry="0.5" transform="translate(8.999 13)" fill="#6bb3d2"/>
          <ellipse id="Ellipse_362" data-name="Ellipse 362" cx="1" cy="0.5" rx="1" ry="0.5" transform="translate(2.999 13)" fill="#6bb3d2"/>
          <circle id="Ellipse_363" data-name="Ellipse 363" cx="0.5" cy="0.5" r="0.5" transform="translate(6.999 13)" fill="#6bb3d2"/>
        </g>
      </g>
    </g>
  </g>
</svg>
