<svg xmlns="http://www.w3.org/2000/svg" width="52" height="52" viewBox="0 0 52 52">
  <g id="research" transform="translate(0 -1)">
    <path id="Path_312" data-name="Path 312" d="M4.06,20.91c-.04.442-.06.892-.06,1.339,0,.147,0,.294.007.439l1.677-.05c0-.13-.006-.259-.006-.389,0-.4.018-.8.054-1.188Z" transform="translate(-0.645 -3.211)" fill="#4497ac"/>
    <path id="Path_313" data-name="Path 313" d="M13.848,6A14.8,14.8,0,0,0,4.4,16.726l1.639.356a13.107,13.107,0,0,1,8.373-9.5Z" transform="translate(-0.709 -0.807)" fill="#4497ac"/>
    <path id="Path_314" data-name="Path 314" d="M33.226,18a9.226,9.226,0,1,0,9.226,9.226A9.237,9.237,0,0,0,33.226,18Zm0,16.774a7.548,7.548,0,1,1,7.548-7.548A7.557,7.557,0,0,1,33.226,34.774Z" transform="translate(-3.871 -2.742)" fill="#4497ac"/>
    <path id="Path_315" data-name="Path 315" d="M42.774,31.685l-.839.839-1.72-1.72a12.524,12.524,0,0,0-4.064-16.89,17.884,17.884,0,0,0-2.63-5.359c.036-.047.079-.087.112-.136l4.194,1.8a4.195,4.195,0,1,0,7.6-1.462L48.406,5.78a2.475,2.475,0,0,0,1.078.252,2.516,2.516,0,1,0-2.516-2.516,2.475,2.475,0,0,0,.252,1.078L44.244,7.57A4.174,4.174,0,0,0,38.5,8.678L34.3,6.879a4.192,4.192,0,0,0-7.067-3.814A18.05,18.05,0,0,0,18.866,1h-.829A18.037,18.037,0,0,0,5.283,31.792l3.494,3.494a7.206,7.206,0,0,1,2.094,4.46,2.5,2.5,0,0,0,.032,4.713v.993a7.548,7.548,0,0,0,15.1,0v-.993a2.5,2.5,0,0,0,.049-4.709,7.2,7.2,0,0,1,.922-2.92,12.413,12.413,0,0,0,8.7-1.486l1.72,1.72-.839.839,7.938,7.939a4.4,4.4,0,1,0,6.217-6.219Zm6.71-29.008a.839.839,0,1,1-.839.839A.84.84,0,0,1,49.484,2.677ZM41.935,8.548a2.516,2.516,0,1,1-2.516,2.516A2.519,2.519,0,0,1,41.935,8.548ZM17.352,20.717l-.335-.112a4.035,4.035,0,0,1,1.277-7.864h.316A4,4,0,0,1,21.865,14.4a12.609,12.609,0,0,0-4.513,6.317Zm5.919-7.237a5.656,5.656,0,0,0-.8-.9L27.349,9.1a4.1,4.1,0,0,0,4.9.568,16.2,16.2,0,0,1,1.726,3.132,12.488,12.488,0,0,0-10.708.685Zm6.923-9.964a2.516,2.516,0,1,1-2.516,2.516A2.519,2.519,0,0,1,30.194,3.516ZM18.452,51.323a5.878,5.878,0,0,1-5.871-5.871v-.839H24.323v.839A5.878,5.878,0,0,1,18.452,51.323Zm6.71-8.387H11.742a.839.839,0,0,1,0-1.677H25.161a.839.839,0,1,1,0,1.677Zm-.8-3.355H12.54A8.862,8.862,0,0,0,9.962,34.1L6.468,30.606A16.361,16.361,0,0,1,18.037,2.677h.829a16.363,16.363,0,0,1,7.442,1.795,4.112,4.112,0,0,0,.06,3.262l-5.384,3.845a5.694,5.694,0,0,0-1.694-.467V7.71H17.613v3.4A5.711,5.711,0,0,0,16.487,22.2l.481.16a12.308,12.308,0,0,0,1.758,8.827c-.039,0-.077.009-.117.009h-.316a4.04,4.04,0,0,1-4.035-4.036V25.323H12.581v1.835a5.719,5.719,0,0,0,5.032,5.669v3.4H19.29V32.816a5.749,5.749,0,0,0,.572-.1,12.6,12.6,0,0,0,5.431,3.664,8.883,8.883,0,0,0-.928,3.2Zm-5.915-15.1a10.9,10.9,0,1,1,10.9,10.9A10.916,10.916,0,0,1,18.452,24.484Zm18.637,9.9a12.667,12.667,0,0,0,2.169-2.169L40.75,33.71l-2.169,2.169ZM47.6,45.452a2.7,2.7,0,0,1-1.923-.8L38.928,37.9l3.846-3.846,6.752,6.753A2.719,2.719,0,0,1,47.6,45.452Z" fill="#4497ac"/>
    <path id="Path_316" data-name="Path 316" d="M36,28h1.677v1.677H36Z" transform="translate(-5.806 -4.355)" fill="#4497ac"/>
    <path id="Path_317" data-name="Path 317" d="M40,28h1.677v1.677H40Z" transform="translate(-6.452 -4.355)" fill="#4497ac"/>
    <path id="Path_318" data-name="Path 318" d="M28,28h1.677v1.677H28Z" transform="translate(-4.516 -4.355)" fill="#4497ac"/>
    <path id="Path_319" data-name="Path 319" d="M32,28h1.677v1.677H32Z" transform="translate(-5.161 -4.355)" fill="#4497ac"/>
  </g>
</svg>
