<svg xmlns="http://www.w3.org/2000/svg" width="18.883" height="22.199" viewBox="0 0 18.883 22.199">
  <g id="avatar_1_" data-name="avatar (1)" transform="translate(-36.073)">
    <g id="Group_7" data-name="Group 7" transform="translate(36.073)">
      <path id="Path_4" data-name="Path 4" d="M141.8,11.962h.147a4.242,4.242,0,0,0,3.241-1.4c1.77-2,1.476-5.415,1.443-5.742A4.69,4.69,0,0,0,144.4.648,5.111,5.111,0,0,0,141.928,0h-.078a5.119,5.119,0,0,0-2.473.63,4.693,4.693,0,0,0-2.257,4.188c-.032.326-.326,3.747,1.443,5.742A4.225,4.225,0,0,0,141.8,11.962Zm-3.452-7.029c0-.014,0-.028,0-.037.152-3.3,2.492-3.65,3.494-3.65h.055c1.241.028,3.351.533,3.494,3.65a.089.089,0,0,0,0,.037c0,.032.326,3.158-1.135,4.8a3.013,3.013,0,0,1-2.367.984h-.046a3,3,0,0,1-2.363-.984C138.029,8.1,138.342,4.96,138.347,4.933Z" transform="translate(-132.438)" fill="#888"/>
      <path id="Path_5" data-name="Path 5" d="M54.954,264.961v-.014c0-.037,0-.074,0-.115-.028-.91-.087-3.039-2.082-3.719l-.046-.014a13.265,13.265,0,0,1-3.816-1.738.62.62,0,0,0-.713,1.016,14.317,14.317,0,0,0,4.2,1.917c1.071.382,1.191,1.526,1.223,2.574a.923.923,0,0,0,0,.115,8.344,8.344,0,0,1-.1,1.421,16.919,16.919,0,0,1-8.1,1.885,17.015,17.015,0,0,1-8.109-1.889,7.9,7.9,0,0,1-.1-1.42c0-.037,0-.074,0-.115.032-1.048.152-2.193,1.223-2.574a14.452,14.452,0,0,0,4.2-1.917.62.62,0,0,0-.713-1.016,13.118,13.118,0,0,1-3.816,1.738l-.046.014c-2,.685-2.055,2.813-2.082,3.719a.924.924,0,0,1,0,.115v.014a7.05,7.05,0,0,0,.234,2.082.59.59,0,0,0,.239.29,17.388,17.388,0,0,0,8.973,2.2,17.441,17.441,0,0,0,8.973-2.2.615.615,0,0,0,.239-.29A7.4,7.4,0,0,0,54.954,264.961Z" transform="translate(-36.073 -247.327)" fill="#888"/>
    </g>
  </g>
</svg>
