<svg xmlns="http://www.w3.org/2000/svg" width="10.5" height="10.5" viewBox="0 0 10.5 10.5">
  <g id="Group_1338" data-name="Group 1338" transform="translate(0 -4)">
    <g id="add_2_" data-name="add (2)" transform="translate(0 4)">
      <g id="Group_193" data-name="Group 193">
        <path id="Path_72" data-name="Path 72" d="M9.93,4.518H5.983V.571A.708.708,0,0,0,5.25,0a.708.708,0,0,0-.733.57V4.518H.57A.708.708,0,0,0,0,5.251a.708.708,0,0,0,.57.733H4.517V9.931a.708.708,0,0,0,.733.57.708.708,0,0,0,.733-.57V5.984H9.93a.708.708,0,0,0,.57-.733A.708.708,0,0,0,9.93,4.518Z" transform="translate(0 -0.001)" fill="#fff"/>
      </g>
    </g>
  </g>
</svg>
