<svg xmlns="http://www.w3.org/2000/svg" width="13.39" height="14.142" viewBox="0 0 13.39 14.142">
  <g id="graphic" transform="translate(-13.601)">
    <g id="Group_1116" data-name="Group 1116" transform="translate(13.601 4.051)">
      <g id="Group_1115" data-name="Group 1115">
        <path id="Path_273" data-name="Path 273" d="M26.715,156.192h-.606v-8.8a.743.743,0,0,0-.742-.742H24.013a.743.743,0,0,0-.742.742v8.8H21.732v-4.811a.743.743,0,0,0-.742-.742H19.635a.743.743,0,0,0-.742.742v4.811H17.355V153.7a.743.743,0,0,0-.742-.742H15.258a.743.743,0,0,0-.742.742v2.491h-.638a.276.276,0,1,0,0,.552H26.715a.276.276,0,1,0,0-.552Zm-9.913,0H15.068V153.7a.19.19,0,0,1,.19-.19h1.354a.19.19,0,0,1,.19.19Zm4.377,0H19.445v-4.811a.19.19,0,0,1,.19-.19h1.354a.19.19,0,0,1,.19.19Zm4.377,0H23.823v-8.8a.19.19,0,0,1,.19-.19h1.354a.19.19,0,0,1,.19.19v8.8Z" transform="translate(-13.601 -146.654)" fill="#f44436"/>
      </g>
    </g>
    <g id="Group_1118" data-name="Group 1118" transform="translate(15.969)">
      <g id="Group_1117" data-name="Group 1117">
        <path id="Path_274" data-name="Path 274" d="M109.485.29A.275.275,0,0,0,109.2,0h-1.684a.276.276,0,1,0,0,.552h1.032l-2.73,2.73-1.03-1.03a.276.276,0,0,0-.391,0L99.427,7.218a.276.276,0,1,0,.391.391l4.77-4.77,1.03,1.03a.276.276,0,0,0,.391,0L108.934.943v.934a.276.276,0,0,0,.552,0V.3S109.486.295,109.485.29Z" transform="translate(-99.346)" fill="#f44436"/>
      </g>
    </g>
    <g id="Group_1120" data-name="Group 1120" transform="translate(15.038 8.101)">
      <g id="Group_1119" data-name="Group 1119">
        <circle id="Ellipse_344" data-name="Ellipse 344" cx="0.276" cy="0.276" r="0.276" fill="#f44436"/>
      </g>
    </g>
  </g>
</svg>
