<svg xmlns="http://www.w3.org/2000/svg" width="17.501" height="21" viewBox="0 0 17.501 21">
  <g id="notification" transform="translate(-42.657)">
    <g id="Group_2" data-name="Group 2" transform="translate(42.657 3.031)">
      <g id="Group_1" data-name="Group 1">
        <path id="Path_1" data-name="Path 1" d="M60.1,89.374l-1.5-2.514a7.494,7.494,0,0,1-1.06-3.842v-2.2a6.125,6.125,0,1,0-12.25,0v2.2a7.494,7.494,0,0,1-1.06,3.842l-1.5,2.514a.439.439,0,0,0,.375.665H59.72a.439.439,0,0,0,.375-.665ZM43.868,89.16l1.105-1.849a8.367,8.367,0,0,0,1.185-4.293v-2.2a5.25,5.25,0,1,1,10.5,0v2.2a8.375,8.375,0,0,0,1.184,4.293l1.106,1.849Z" transform="translate(-42.657 -74.667)" fill="#888"/>
      </g>
    </g>
    <g id="Group_4" data-name="Group 4" transform="translate(49.676)">
      <g id="Group_3" data-name="Group 3">
        <path id="Path_2" data-name="Path 2" d="M215.065,0a1.734,1.734,0,0,0-1.732,1.732V3.464a.433.433,0,0,0,.866,0V1.732a.866.866,0,1,1,1.732,0V3.464a.433.433,0,0,0,.866,0V1.732A1.734,1.734,0,0,0,215.065,0Z" transform="translate(-213.333)" fill="#888"/>
      </g>
    </g>
    <g id="Group_6" data-name="Group 6" transform="translate(49.243 17.537)">
      <g id="Group_5" data-name="Group 5">
        <path id="Path_3" data-name="Path 3" d="M206.7,426.893a.433.433,0,1,0-.748.438,1.3,1.3,0,1,1-2.25,0,.434.434,0,1,0-.748-.438,2.166,2.166,0,1,0,3.746,0Z" transform="translate(-202.666 -426.68)" fill="#888"/>
      </g>
    </g>
  </g>
</svg>
